<?xml version="1.0" encoding="UTF-8" standalone="no"?><svg xmlns="http://www.w3.org/2000/svg" xmlns:xlink="http://www.w3.org/1999/xlink" contentStyleType="text/css" height="424px" preserveAspectRatio="none" style="width:471px;height:424px;background:#FFFFFF;" version="1.1" viewBox="0 0 471 424" width="471px" zoomAndPan="magnify"><defs/><g><rect fill="none" height="26.2969" id="_title" style="stroke:none;stroke-width:1.0;" width="121" x="173.5" y="15"/><text fill="#000000" font-family="Arial" font-size="14" font-weight="bold" lengthAdjust="spacing" textLength="111" x="178.5" y="32.9951">FlipFit - Admin</text><ellipse cx="262.75" cy="57.2969" fill="#222222" rx="10" ry="10" style="stroke:#222222;stroke-width:1.0;"/><rect fill="#F0F8FF" height="33.9688" rx="12.5" ry="12.5" style="stroke:#0047AB;stroke-width:0.5;" width="147" x="189.25" y="87.2969"/><text fill="#000000" font-family="Arial" font-size="12" lengthAdjust="spacing" textLength="127" x="199.25" y="108.4355">Access Admin Portal</text><polygon fill="#F0F8FF" points="186.75,141.2656,338.75,141.2656,350.75,153.2656,338.75,165.2656,186.75,165.2656,174.75,153.2656,186.75,141.2656" style="stroke:#0047AB;stroke-width:0.5;"/><text fill="#000000" font-family="Arial" font-size="11" lengthAdjust="spacing" textLength="152" x="186.75" y="157.0737">Authentication Successful?</text><text fill="#000000" font-family="Arial" font-size="11" lengthAdjust="spacing" textLength="20" x="154.75" y="150.6714">yes</text><text fill="#000000" font-family="Arial" font-size="11" lengthAdjust="spacing" textLength="14" x="350.75" y="150.6714">no</text><rect fill="#F0F8FF" height="33.9688" rx="12.5" ry="12.5" style="stroke:#0047AB;stroke-width:0.5;" width="180" x="55.5" y="175.2656"/><text fill="#000000" font-family="Arial" font-size="12" lengthAdjust="spacing" textLength="160" x="65.5" y="196.4043">Onboard New Gym Center</text><rect fill="#F0F8FF" height="33.9688" rx="12.5" ry="12.5" style="stroke:#0047AB;stroke-width:0.5;" width="213" x="39" y="229.2344"/><text fill="#000000" font-family="Arial" font-size="12" lengthAdjust="spacing" textLength="193" x="49" y="250.373">Define Initial Fixed 1-hour Slots</text><rect fill="#F0F8FF" height="33.9688" rx="12.5" ry="12.5" style="stroke:#0047AB;stroke-width:0.5;" width="233" x="29" y="283.2031"/><text fill="#000000" font-family="Arial" font-size="12" lengthAdjust="spacing" textLength="213" x="39" y="304.3418">Set Default Seat Capacity per Slot</text><rect fill="#F0F8FF" height="33.9688" rx="12.5" ry="12.5" style="stroke:#0047AB;stroke-width:0.5;" width="269" x="11" y="337.1719"/><text fill="#000000" font-family="Arial" font-size="12" lengthAdjust="spacing" textLength="249" x="21" y="358.3105">Persist Infrastructure Data to Database</text><ellipse cx="145.5" cy="402.1406" fill="none" rx="11" ry="11" style="stroke:#222222;stroke-width:1.0;"/><ellipse cx="145.5" cy="402.1406" fill="#222222" rx="6" ry="6" style="stroke:#111111;stroke-width:1.0;"/><rect fill="#F0F8FF" height="33.9688" rx="12.5" ry="12.5" style="stroke:#0047AB;stroke-width:0.5;" width="160" x="300" y="175.2656"/><text fill="#000000" font-family="Arial" font-size="12" lengthAdjust="spacing" textLength="140" x="310" y="196.4043">Display Access Denied</text><ellipse cx="380" cy="240.2344" fill="none" rx="11" ry="11" style="stroke:#222222;stroke-width:1.0;"/><ellipse cx="380" cy="240.2344" fill="#222222" rx="6" ry="6" style="stroke:#111111;stroke-width:1.0;"/><line style="stroke:#2C3E50;stroke-width:1.0;" x1="262.75" x2="262.75" y1="67.2969" y2="87.2969"/><polygon fill="#2C3E50" points="258.75,77.2969,262.75,87.2969,266.75,77.2969,262.75,81.2969" style="stroke:#2C3E50;stroke-width:1.0;"/><line style="stroke:#2C3E50;stroke-width:1.0;" x1="145.5" x2="145.5" y1="209.2344" y2="229.2344"/><polygon fill="#2C3E50" points="141.5,219.2344,145.5,229.2344,149.5,219.2344,145.5,223.2344" style="stroke:#2C3E50;stroke-width:1.0;"/><line style="stroke:#2C3E50;stroke-width:1.0;" x1="145.5" x2="145.5" y1="263.2031" y2="283.2031"/><polygon fill="#2C3E50" points="141.5,273.2031,145.5,283.2031,149.5,273.2031,145.5,277.2031" style="stroke:#2C3E50;stroke-width:1.0;"/><line style="stroke:#2C3E50;stroke-width:1.0;" x1="145.5" x2="145.5" y1="317.1719" y2="337.1719"/><polygon fill="#2C3E50" points="141.5,327.1719,145.5,337.1719,149.5,327.1719,145.5,331.1719" style="stroke:#2C3E50;stroke-width:1.0;"/><line style="stroke:#2C3E50;stroke-width:1.0;" x1="145.5" x2="145.5" y1="371.1406" y2="391.1406"/><polygon fill="#2C3E50" points="141.5,381.1406,145.5,391.1406,149.5,381.1406,145.5,385.1406" style="stroke:#2C3E50;stroke-width:1.0;"/><line style="stroke:#2C3E50;stroke-width:1.0;" x1="380" x2="380" y1="209.2344" y2="229.2344"/><polygon fill="#2C3E50" points="376,219.2344,380,229.2344,384,219.2344,380,223.2344" style="stroke:#2C3E50;stroke-width:1.0;"/><line style="stroke:#2C3E50;stroke-width:1.0;" x1="174.75" x2="145.5" y1="153.2656" y2="153.2656"/><line style="stroke:#2C3E50;stroke-width:1.0;" x1="145.5" x2="145.5" y1="153.2656" y2="175.2656"/><polygon fill="#2C3E50" points="141.5,165.2656,145.5,175.2656,149.5,165.2656,145.5,169.2656" style="stroke:#2C3E50;stroke-width:1.0;"/><line style="stroke:#2C3E50;stroke-width:1.0;" x1="350.75" x2="380" y1="153.2656" y2="153.2656"/><line style="stroke:#2C3E50;stroke-width:1.0;" x1="380" x2="380" y1="153.2656" y2="175.2656"/><polygon fill="#2C3E50" points="376,165.2656,380,175.2656,384,165.2656,380,169.2656" style="stroke:#2C3E50;stroke-width:1.0;"/><line style="stroke:#2C3E50;stroke-width:1.0;" x1="262.75" x2="262.75" y1="121.2656" y2="141.2656"/><polygon fill="#2C3E50" points="258.75,131.2656,262.75,141.2656,266.75,131.2656,262.75,135.2656" style="stroke:#2C3E50;stroke-width:1.0;"/><!--MD5=[280d5d926503e51cdade1adccf0a52ca]
@startuml
skinparam ActivityDiamondBackgroundColor #fdfd96
skinparam ActivityBackgroundColor #f0f8ff
skinparam ActivityBorderColor #0047ab
skinparam defaultFontName Arial
skinparam ArrowColor #2c3e50

title FlipFit - Admin

|Admin|
start
:Access Admin Portal;
if (Authentication Successful?) then (yes)
  :Onboard New Gym Center;
  :Define Initial Fixed 1-hour Slots;
  :Set Default Seat Capacity per Slot;
  :Persist Infrastructure Data to Database;
  stop
else (no)
  :Display Access Denied;
  stop
endif
@enduml

PlantUML version 1.2022.7(Mon Aug 22 17:01:30 UTC 2022)
(GPL source distribution)
Java Runtime: OpenJDK Runtime Environment
JVM: OpenJDK 64-Bit Server VM
Default Encoding: UTF-8
Language: en
Country: null
--></g></svg>